gait_subject_b_1ms
version=1
nRows=40
nColumns=17
InDegrees=yes
endheader
time	ankle_angle_l	ankle_angle_r	hip_adduction_l	hip_adduction_r	hip_flexion_l	hip_flexion_r	hip_rotation_l	hip_rotation_r	knee_angle_l	knee_angle_r	lumbar_bending	lumbar_extemsion	lumbar_rotation
0.00000000	-19.51041040	-0.30329827	7.85451408	6.23208890	5.65967652	22.37969330	4.34654748	2.09294546	-53.38554012	-24.04559987	0.70806251	1.56888952	-5.92473125	0.00000000	0.00000000	0.00000000
0.00200000	-19.66952419	-0.16139399	7.92743458	6.30910519	6.04771947	22.24489135	4.33085599	2.14268581	-53.95292221	-24.03337522	0.77256108	1.62369426	-5.90921390	0.00000000	0.00000000	0.00000000
0.00400000	-19.79520645	-0.01940907	7.99373736	6.38077519	6.43680286	22.11243709	4.31316378	2.19404977	-54.51234512	-24.02253170	0.83187463	1.68091678	-5.89460035	0.00000000	0.00000000	0.00000000
0.00600000	-19.88583209	0.12268694	8.05317448	6.44708670	6.82713702	21.98175719	4.29390883	2.24658304	-55.06347455	-24.01335534	0.88600207	1.74028755	-5.88089139	0.00000000	0.00000000	0.00000000
0.00800000	-19.94005918	0.26494846	8.10584223	6.50819520	7.21821762	21.85283485	4.27340734	2.29988501	-55.60636928	-24.00579655	0.93498573	1.80152239	-5.86807236	0.00000000	0.00000000	0.00000000
0.01000000	-19.95675644	0.40739410	8.15181156	6.56410469	7.61015219	21.72518391	4.25199184	2.35349425	-56.14074911	-24.00000631	0.97888161	1.86433644	-5.85611386	0.00000000	0.00000000	0.00000000
0.01200000	-19.93515095	0.55005205	8.19126503	6.61476288	8.00246731	21.59860827	4.22994559	2.40694503	-56.66663349	-23.99593819	1.01776968	1.92843061	-5.84496990	0.00000000	0.00000000	0.00000000
0.01400000	-19.87480184	0.69293050	8.22431384	6.66046467	8.39476939	21.47295700	4.20757291	2.45987523	-57.18398098	-23.99347547	1.05175948	1.99351015	-5.83457598	0.00000000	0.00000000	0.00000000
0.01600000	-19.77559360	0.83600178	8.25100141	6.70131994	8.78707810	21.34765752	4.18519898	2.51187287	-57.69250176	-23.99267636	1.08096960	2.05928177	-5.82485353	0.00000000	0.00000000	0.00000000
0.01800000	-19.63780848	0.97924839	8.27148482	6.73763773	9.17919799	21.22261519	4.16310240	2.56260859	-58.19200776	-23.99330571	1.10554952	2.12546336	-5.81570811	0.00000000	0.00000000	0.00000000
0.02000000	-19.46257945	1.12281890	8.28791796	6.76829260	9.56558932	21.09990666	4.14082631	2.61144834	-58.68520956	-23.99394988	1.12571050	2.19166252	-5.80704433	0.00000000	0.00000000	0.00000000
0.02200000	-19.24987715	1.26621056	8.29652550	6.79607032	9.95843915	20.97353705	4.12009100	2.65861761	-59.16513705	-23.99737889	1.14153312	2.25785311	-5.79872220	0.00000000	0.00000000	0.00000000
0.02400000	-19.00186648	1.40961079	8.30001522	6.81990717	10.34927854	20.84672675	4.10020208	2.70358255	-59.63607081	-24.00150853	1.15328616	2.32359845	-5.79062021	0.00000000	0.00000000	0.00000000
0.02600000	-18.72022711	1.55289905	8.29823360	6.84021185	10.73917235	20.71884369	4.08152305	2.74613530	-60.09707666	-24.00625013	1.16116588	2.38867997	-5.78259343	0.00000000	0.00000000	0.00000000
0.02800000	-18.40708946	1.69597002	8.29131323	6.85721067	11.12783779	20.58966701	4.06429580	2.78606684	-60.54793254	-24.01128340	1.16538502	2.45286014	-5.77448809	0.00000000	0.00000000	0.00000000
0.03000000	-18.06491837	1.83872382	8.28007426	6.87084128	11.51435412	20.45918170	4.04852608	2.82313715	-60.98875115	-24.01617112	1.16618553	2.51589914	-5.76614976	0.00000000	0.00000000	0.00000000
0.03200000	-17.69635321	1.98099667	8.26421397	6.88178393	11.89895110	20.32694814	4.03458485	2.85732477	-61.41898875	-24.02069946	1.16378823	2.57760200	-5.75740477	0.00000000	0.00000000	0.00000000
0.03400000	-17.30430446	2.12262648	8.24410451	6.89056133	12.28098196	20.19270042	4.02260801	2.88860928	-61.83856770	-24.02456935	1.15844292	2.63776487	-5.74808049	0.00000000	0.00000000	0.00000000
0.03600000	-16.89182962	2.26348557	8.22019353	6.89707431	12.65989387	20.05657989	4.01269854	2.91687056	-62.24734782	-24.02728946	1.15038241	2.69621396	-5.73800202	0.00000000	0.00000000	0.00000000
0.03800000	-16.46204692	2.40340492	8.19266515	6.90162048	13.03570386	19.91841623	4.00504044	2.94212061	-62.64486470	-24.02855307	1.13984026	2.75280288	-5.72698949	0.00000000	0.00000000	0.00000000
0.04000000	-16.01816639	2.54219734	8.16188916	6.90455251	13.40799893	19.77788675	3.99974475	2.96442161	-63.03087984	-24.02815871	1.12705692	2.80738208	-5.71486327	0.00000000	0.00000000	0.00000000
0.04200000	-15.56340574	2.67967265	8.12802800	6.90659036	13.77642683	19.63485097	3.99697752	2.98396442	-63.40511969	-24.02584296	1.11227145	2.85982576	-5.70143976	0.00000000	0.00000000	0.00000000
0.04400000	-15.10091919	2.81567773	8.09153519	6.90740811	14.14077458	19.48923918	3.99680162	3.00073796	-63.76723979	-24.02134595	1.09569504	2.91002784	-5.68654359	0.00000000	0.00000000	0.00000000
0.04600000	-14.63379577	2.95006503	8.05284540	6.90713015	14.50061860	19.34124704	3.99927454	3.01487958	-64.11702265	-24.01430786	1.07754567	2.95789719	-5.66999957	0.00000000	0.00000000	0.00000000
0.04800000	-14.16493886	3.08262647	8.01186056	6.90659505	14.85634419	19.19036130	4.00460771	3.02670514	-64.45381590	-24.00477658	1.05803266	3.00336450	-5.65163206	0.00000000	0.00000000	0.00000000
0.05000000	-13.69714760	3.21322190	7.96915733	6.90579796	15.20750124	19.03659104	4.01278801	3.03638162	-64.77745188	-23.99257052	1.03735949	3.04635682	-5.63127827	0.00000000	0.00000000	0.00000000
0.05200000	-13.23310520	3.34169650	7.92327116	6.90593802	15.55361267	18.88006464	4.02438003	3.04437616	-65.08777775	-23.97749144	1.01566336	3.08682144	-5.60875571	0.00000000	0.00000000	0.00000000
0.05400000	-12.77506552	3.46795909	7.87657576	6.90578702	15.89499874	18.72060148	4.03882474	3.05063164	-65.38429159	-23.95953967	0.99317270	3.12472133	-5.58394322	0.00000000	0.00000000	0.00000000
0.05600000	-12.32517410	3.59188848	7.82879744	6.90609391	16.23165564	18.55819602	4.05631429	3.05555184	-65.66667363	-23.93866894	0.97004889	3.16003218	-5.55669345	0.00000000	0.00000000	0.00000000
0.05800000	-11.88532939	3.71341757	7.78004070	6.90685028	16.56344929	18.39306305	4.07691056	3.05940065	-65.93472257	-23.91476369	0.94643403	3.19273789	-5.52687573	0.00000000	0.00000000	0.00000000
0.06000000	-11.45713172	3.83247657	7.73097481	6.90775220	16.89049060	18.22495980	4.10050314	3.06238084	-66.18815520	-23.88798670	0.92247908	3.22282378	-5.49438101	0.00000000	0.00000000	0.00000000
0.06200000	-11.04199790	3.94903701	7.68116204	6.90923520	17.21255671	18.05431867	4.12727059	3.06487771	-66.42691102	-23.85819552	0.89829845	3.25029440	-5.45909772	0.00000000	0.00000000	0.00000000
0.06400000	-10.64102113	4.06307793	7.63098747	6.91125936	17.52984254	17.88117493	4.15714928	3.06716994	-66.65076250	-23.82549371	0.87402204	3.27516085	-5.42094179	0.00000000	0.00000000	0.00000000
0.06600000	-10.25512212	4.17460927	7.58018518	6.91391451	17.84202745	17.70578584	4.19023099	3.06957269	-66.85980390	-23.78991026	0.84974550	3.29743133	-5.37983624	0.00000000	0.00000000	0.00000000
0.06800000	-9.88485287	4.28368714	7.52938209	6.91653567	18.14983101	17.52849836	4.22635813	3.07225041	-67.05363136	-23.75146513	0.82557527	3.31715589	-5.33573479	0.00000000	0.00000000	0.00000000
0.07000000	-9.53071057	4.39032858	7.47763319	6.91971560	18.45284000	17.34926019	4.26576392	3.07560218	-67.23247058	-23.71041172	0.80157768	3.33434563	-5.28858737	0.00000000	0.00000000	0.00000000
0.07200000	-9.19283904	4.49458696	7.42566551	6.92324452	18.75152727	17.16795267	4.30823703	3.07985237	-67.39613344	-23.66705937	0.77786797	3.34904014	-5.23838499	0.00000000	0.00000000	0.00000000
0.07400000	-8.87127252	4.59652198	7.37308130	6.92734158	19.04598985	16.98441211	4.35383753	3.08529731	-67.54464717	-23.62175953	0.75451602	3.36127439	-5.18512289	0.00000000	0.00000000	0.00000000
0.07600000	-8.56590771	4.69627386	7.32015362	6.93168106	19.33575031	16.79923817	4.40244043	3.09213641	-67.67839105	-23.57448026	0.73160224	3.37108771	-5.12882077	0.00000000	0.00000000	0.00000000
0.07800000	-8.27647743	4.79398161	7.26672523	6.93644515	19.62066659	16.61294505	4.45401833	3.10064231	-67.79757351	-23.52523973	0.70919788	3.37853617	-5.06951257	0.00000000	0.00000000	0.00000000
